<svg xmlns="http://www.w3.org/2000/svg" viewBox="0 0 64 64" width="512px" height="512px"><path fill="#85cbf8" d="M31 3A28 28 0 1 0 31 59A28 28 0 1 0 31 3Z"/><path fill="#7bbeeb" d="M31,3l1.55,3.48a60,60,0,0,1,.61,47.31L31,59A28,28,0,0,0,31,3Z"/><path fill="#f9dd8f" d="M22.47,17.93a7,7,0,0,1,3.81-5.36,7.91,7.91,0,0,0-7.82,3.21,13.12,13.12,0,0,0-5.93-.09,7.87,7.87,0,0,1-3-6.14c-2.73,3.19-3.3,5.6-3,8.47C-3.95,36.66,10.2,59.08,30.37,59.08,48.49,59.08,59,45.35,59,31.27c0-9.49-4.78-16.25-8.33-20.08,1.65,1.8,3.1,7.07,2.74,10.32C49.84,12.3,41.13,8.83,36.75,8.83,47.25,12,50.16,25.74,49.28,29.58c-.86-4.5-3.6-8.37-5.24-9.4,9.57,22.22-13.54,29-20.59,21.33A11.3,11.3,0,0,0,31.55,40c2.52-1.67,2.75-1.77,4.37-1.89,1.92-.15-.12-3.91-4.31-3.27-1.73.26-4.57,2.27-8.07.95-4.22-1.6-4.09-7.31.27-5.59.94-1.21.25-3.51.25-3.51a21.64,21.64,0,0,1,3.84-2.53,3.86,3.86,0,0,0,2.23-3.42A2.89,2.89,0,0,0,28,20.18C23.11,20.48,22.79,18.74,22.47,17.93Z" data-name="Mozilla Firefox"/><path fill="#f7cc8f" d="M46,47.07C41.36,51.38,34.62,54,25.86,53A3.26,3.26,0,0,1,25,52.8C16.86,49.51,12.15,44,10.12,38.07A3,3,0,0,0,8,36.15H8a3,3,0,0,0-3.56,3.91c2.63,7.67,8.78,14.68,19,18.89a3.25,3.25,0,0,0,.9.23C35.37,60.29,44.09,57,50,51.49a3,3,0,0,0-1.29-5.13h0A3,3,0,0,0,46,47.07Z"/><path fill="#8d6c9f" d="M60,31.72c0-.15,0-.3,0-.44s0-.2,0-.31A29,29,0,0,0,10.57,10.44a4.78,4.78,0,0,1,0-.84,1,1,0,0,0-1.76-.7c-2.42,2.83-3.39,5.3-3.26,8.3,0,0-.15.25-.21.35A29,29,0,0,0,2,31.81c0,.18,0,.36,0,.54s0,.43,0,.65A28.53,28.53,0,0,0,6,45.8,28.15,28.15,0,0,0,30.37,60.08c18.95,0,29.3-14.38,29.62-28.15C60,31.86,60,31.79,60,31.72ZM41,5.92a26.85,26.85,0,0,1,8.75,5.67,1,1,0,0,0,.17.28A12.33,12.33,0,0,1,52,16.74C45.54,8.63,35.93,7.51,35.21,7.39a1,1,0,0,0-1.15.82,1,1,0,0,0,.82,1.15c8.79,2.22,10.59,6.7,12.7,13.3a10.88,10.88,0,0,0-3-3.33,1,1,0,0,0-1.45,1.24c5.56,12.9-.72,18.74-3.67,20.65-4,2.57-9.12,3-12.69,1.42A12.29,12.29,0,0,0,32.1,40.8c2.44-1.62,2.52-1.62,3.89-1.73a1.71,1.71,0,0,0,1.5-1A2.32,2.32,0,0,0,37,35.75a5.85,5.85,0,0,0-5.56-1.93,10,10,0,0,0-1.85.55c-1.57.57-3.52,1.28-5.71.45a3.64,3.64,0,0,1-2.41-2.68A1.21,1.21,0,0,1,21.75,31c.31-.25.92-.22,1.69.08a1,1,0,0,0,1.16-.32A4.84,4.84,0,0,0,25.17,27a19.71,19.71,0,0,1,2.65-1.7L28.4,25c1.89-1.1,2.8-2.56,2.72-4.33a1,1,0,0,0-.39-.74,3.84,3.84,0,0,0-2.82-.74c-3.66.23-4.18-.73-4.42-1.36a6,6,0,0,1,3.21-4.34,1,1,0,0,0-.28-1.89A9,9,0,0,0,18,14.67a13.57,13.57,0,0,0-5.23,0,7.28,7.28,0,0,1-1.55-2A27.14,27.14,0,0,1,41,5.92ZM8.89,12.06a9.26,9.26,0,0,0,3.05,4.43,1,1,0,0,0,.78.18,12.09,12.09,0,0,1,5.54.08,1,1,0,0,0,1-.42,6.77,6.77,0,0,1,4-2.68,8.23,8.23,0,0,0-1.83,4.16,1,1,0,0,0,.06.49l.05.14c.56,1.52,1.78,3,6.44,2.74a2.85,2.85,0,0,1,1.06.1,3.15,3.15,0,0,1-1.7,2l-.55.32a18.87,18.87,0,0,0-3.45,2.33,1,1,0,0,0-.29,1,5,5,0,0,1,.16,2,2.92,2.92,0,0,0-3.75,3.51,5.59,5.59,0,0,0,3.68,4.23c2.89,1.09,5.33.21,7.11-.44a8.9,8.9,0,0,1,1.46-.45,4.08,4.08,0,0,1,3.27.75,2.28,2.28,0,0,1,.5.56c-1.64.15-2.13.44-4.53,2a10.29,10.29,0,0,1-7.29,1.41,1,1,0,0,0-1,1.64c3.88,4.24,11.87,4.56,17.82.71,5.71-3.69,7.88-10.06,6.22-17.62a17.48,17.48,0,0,1,1.54,4.48,1,1,0,0,0,1,.81,1,1,0,0,0,1-.78c.73-3.18-.92-12.29-6.58-17.92a19.06,19.06,0,0,1,8.8,10,1,1,0,0,0,1.93-.25,15.17,15.17,0,0,0-.21-4.1A26.6,26.6,0,0,1,58,31.06c0,.19,0,.38,0,.57s0,.19,0,.29a27,27,0,0,1-53.91,1A26.17,26.17,0,0,1,7.44,18.51a1,1,0,0,0,.12-.61A8.13,8.13,0,0,1,8.89,12.06Z"/><path fill="#8d6c9f" d="M22.1 53.29a1 1 0 0 0 1.3-.56l.74-1.86a1 1 0 0 0-1.86-.74L21.54 52A1 1 0 0 0 22.1 53.29zM27.79 54.74h.12a1 1 0 0 0 1-.88l.24-2a1 1 0 1 0-2-.24l-.24 2A1 1 0 0 0 27.79 54.74zM13.56 46.7a1 1 0 0 0 .62-.21l1.57-1.24a1 1 0 0 0-1.24-1.57l-1.57 1.24a1 1 0 0 0 .62 1.79zM33.52 54.67h.14a1 1 0 0 0 .85-1.13l-.29-2a1 1 0 1 0-2 .29l.29 2A1 1 0 0 0 33.52 54.67zM17.58 50.62a1 1 0 0 0 .8-.4l1.2-1.6a1 1 0 1 0-1.6-1.2L16.78 49a1 1 0 0 0 .8 1.6zM28.34 9.28h.14a20.66 20.66 0 0 1 2.14-.19 1 1 0 0 0 1-1 1 1 0 0 0-1-1 22.72 22.72 0 0 0-2.35.21 1 1 0 0 0 .14 2z"/></svg>