<svg xmlns="http://www.w3.org/2000/svg" viewBox="0 0 64 64" width="512px" height="512px"><path fill="#ed7899" d="M31 3A28 28 0 1 0 31 59A28 28 0 1 0 31 3Z"/><path fill="#72caaf" d="M3.64,30.88A29.64,29.64,0,0,1,9,14L22,37s14,4.09,14,4.07L26.21,58A27.66,27.66,0,0,1,3.64,30.88Z"/><path fill="#5dbc9d" d="M29.68,53a22.46,22.46,0,0,1-11.14-3.82,3,3,0,0,0-2.83-.28h0a3,3,0,0,0-.49,5.27A28.79,28.79,0,0,0,27,58.74C31.42,59.44,32.63,53.2,29.68,53Z"/><path fill="#f9e3ae" d="M44.88,54.71a29.64,29.64,0,0,1-17.34,3.58L40.24,35.7,36.75,21.5l20.77.25A27.66,27.66,0,0,1,44.88,54.71Z"/><path fill="#f283a5" d="M50.47,16.55h0a3,3,0,0,0,1.12-4.72,28,28,0,0,0-37-4.31,3,3,0,0,0,.63,5.22h0A3,3,0,0,0,18,12.42a22,22,0,0,1,29,3.33A3,3,0,0,0,50.47,16.55Z"/><path fill="#f6d397" d="M52.59,34.79C51.5,41,47.67,47.14,40.1,51.63a3.26,3.26,0,0,1-.81.34,28.92,28.92,0,0,1-9.61,1c-.93,2.52-1.35,2.64-2.73,5.75a36.25,36.25,0,0,0,14.8-.92,3.25,3.25,0,0,0,.85-.36c9.46-5.73,14.46-13.59,15.89-21.57a3,3,0,0,0-4.12-3.32h0A3,3,0,0,0,52.59,34.79Z"/><path fill="#85cbf8" d="M31 21A10 10 0 1 0 31 41A10 10 0 1 0 31 21Z"/><path fill="#8d6c9f" d="M46.31 15.92a1 1 0 0 0 1.42-1.41 23.23 23.23 0 0 0-1.87-1.68 1 1 0 0 0-1.26 1.56A21.14 21.14 0 0 1 46.31 15.92zM26.12 10.42A20.93 20.93 0 0 1 38 10.81 21.17 21.17 0 0 1 41 12a1 1 0 0 0 .45.11 1 1 0 0 0 .45-1.89 23.26 23.26 0 0 0-3.18-1.33 22.91 22.91 0 0 0-13.07-.42 1 1 0 1 0 .51 1.93zM15.17 39.5a1 1 0 0 0-1.34-.45l-1.79.9a1 1 0 1 0 .9 1.79l1.79-.9A1 1 0 0 0 15.17 39.5zM16.47 43.41L15 44.74a1 1 0 1 0 1.33 1.49l1.5-1.33a1 1 0 0 0-1.33-1.49zM12.18 31.06h.06a1 1 0 0 0 .06-2l-2-.12a1 1 0 0 0-1.06.94 1 1 0 0 0 .94 1.06zM21.53 46.66a1 1 0 0 0-1.39.28L19 48.61a1 1 0 0 0 1.67 1.1L21.82 48A1 1 0 0 0 21.53 46.66zM13.59 34.94a1 1 0 0 0-1.18-.78l-2 .4a1 1 0 0 0 .2 2l.2 0 2-.4A1 1 0 0 0 13.59 34.94z"/><path fill="#8d6c9f" d="M31,2A29,29,0,1,0,60,31,29,29,0,0,0,31,2Zm0,2A27,27,0,0,1,55.65,20H31A11,11,0,0,0,20,30L10.49,13.47A26.94,26.94,0,0,1,31,4Zm9,27a9,9,0,1,1-9-9A9,9,0,0,1,40,31ZM4,31A26.85,26.85,0,0,1,9.15,15.16L21.47,36.5h0A10.94,10.94,0,0,0,35.63,41h0L26.07,57.54A27,27,0,0,1,4,31ZM31,58a27.19,27.19,0,0,1-2.8-.15L40.53,36.5v0A11,11,0,0,0,37.32,22H56.45A27,27,0,0,1,31,58Z"/></svg>