<?xml version="1.0" encoding="iso-8859-1"?>
<!-- Generator: Adobe Illustrator 19.0.0, SVG Export Plug-In . SVG Version: 6.00 Build 0)  -->
<svg version="1.1" id="Capa_1" xmlns="http://www.w3.org/2000/svg" xmlns:xlink="http://www.w3.org/1999/xlink" x="0px" y="0px"
	 viewBox="0 0 512 512" style="enable-background:new 0 0 512 512;" xml:space="preserve">
<path style="fill:#D9EEF7;" d="M501.333,96v362.667c0,23.564-19.103,42.667-42.667,42.667H53.333
	c-23.564,0-42.667-19.103-42.667-42.667V96H501.333z"/>
<path style="fill:#AAC4DA;" d="M501.333,53.333V96H10.667V53.333c0-23.564,19.103-42.667,42.667-42.667h405.333
	C482.231,10.667,501.333,29.769,501.333,53.333z"/>
<path style="fill:#F2F2F2;" d="M458.667,149.333V448c0,5.891-4.776,10.667-10.667,10.667H64c-5.891,0-10.667-4.776-10.667-10.667
	V138.667H448C453.891,138.667,458.667,143.442,458.667,149.333z"/>
<g>
	<path style="fill:#4C5B66;" d="M458.667,0H53.333C23.893,0.035,0.035,23.893,0,53.333v405.333
		C0.035,488.107,23.893,511.965,53.333,512h405.333c29.441-0.035,53.298-23.893,53.333-53.333V53.333
		C511.965,23.893,488.107,0.035,458.667,0z M490.667,458.667c0,17.673-14.327,32-32,32H53.333c-17.673,0-32-14.327-32-32V53.333
		c0-17.673,14.327-32,32-32h405.333c17.673,0,32,14.327,32,32V458.667z"/>
	<path style="fill:#4C5B66;" d="M42.667,85.333h426.667v21.333H42.667V85.333z"/>
	<path style="fill:#4C5B66;" d="M53.333,42.667h21.333V64H53.333V42.667z"/>
	<path style="fill:#4C5B66;" d="M96,42.667h21.333V64H96V42.667z"/>
	<path style="fill:#4C5B66;" d="M437.333,42.667h21.333V64h-21.333V42.667z"/>
	<path style="fill:#4C5B66;" d="M448,128H138.667v21.333H448V448H64V256H42.667v192c0,11.782,9.551,21.333,21.333,21.333h384
		c11.782,0,21.333-9.551,21.333-21.333V149.333C469.333,137.551,459.782,128,448,128z"/>
	<path style="fill:#4C5B66;" d="M71.541,231.541l42.667-42.667c4.164-4.165,4.164-10.917,0-15.083l-42.667-42.667l-15.083,15.083
		l35.125,35.125l-35.125,35.125L71.541,231.541z"/>
	<path style="fill:#4C5B66;" d="M128,202.667h64V224h-64V202.667z"/>
</g>
<g>
</g>
<g>
</g>
<g>
</g>
<g>
</g>
<g>
</g>
<g>
</g>
<g>
</g>
<g>
</g>
<g>
</g>
<g>
</g>
<g>
</g>
<g>
</g>
<g>
</g>
<g>
</g>
<g>
</g>
</svg>
