<svg xmlns="http://www.w3.org/2000/svg"  viewBox="0 0 64 64" width="64px" height="64px"><path fill="#85cbf8" d="M1.322,33h42.776c0,0,3.029,0.093,4.974-2c0,0-3.869-4.675,0.995-12c0,0,5.969,4,3.979,9	c0,0,4.09-3.186,8.953,1c0,0-2.166,6.046-9.948,5c0,0-7.561,22.958-31.878,20.865C-3.144,52.773,1.322,33,1.322,33z"/><path fill="#7bbeeb" d="M48.067,39.846c-1.356-1.033-3.269-0.759-4.328,0.576c-3.504,4.415-9.267,9.099-18.103,9.544	c-0.147,0.007-0.53,0.009-1.012,0.006c-1.708-0.011-3.141,1.292-3.287,2.993v0c-0.09,1.049,0.725,1.955,1.777,1.976	c1.279,0.025,2.698,0.026,3.089,0.003c11.217-0.659,18.227-6.959,22.259-12.479C49.069,41.634,48.886,40.469,48.067,39.846	L48.067,39.846z"/><path fill="#8d6c9f" d="M43.893,42.801c-0.229,0-0.458-0.078-0.646-0.237l-1.525-1.294 c-0.421-0.357-0.473-0.988-0.116-1.41c0.357-0.42,0.988-0.474,1.41-0.116l1.525,1.294c0.421,0.357,0.473,0.988,0.116,1.41 C44.458,42.681,44.177,42.801,43.893,42.801z"/><path fill="#8d6c9f" d="M40.166,46.457c-0.291,0-0.58-0.126-0.777-0.371l-1.259-1.554 c-0.348-0.429-0.282-1.059,0.147-1.406c0.428-0.348,1.058-0.282,1.406,0.147l1.259,1.554c0.348,0.429,0.282,1.059-0.147,1.406 C40.609,46.384,40.387,46.457,40.166,46.457z"/><path fill="#8d6c9f" d="M35.774,49.321c-0.364,0-0.716-0.2-0.892-0.546l-0.907-1.783c-0.25-0.492-0.055-1.094,0.438-1.345 c0.492-0.252,1.094-0.054,1.345,0.438l0.907,1.783c0.25,0.492,0.055,1.094-0.438,1.345 C36.082,49.286,35.927,49.321,35.774,49.321z"/><path fill="#8d6c9f" d="M30.86,51.172c-0.445,0-0.851-0.299-0.968-0.75l-0.5-1.937c-0.138-0.535,0.183-1.08,0.718-1.218 c0.534-0.137,1.08,0.184,1.218,0.718l0.5,1.937c0.138,0.535-0.183,1.08-0.718,1.218C31.027,51.162,30.943,51.172,30.86,51.172z"/><path fill="#8d6c9f" d="M25.683,51.947c-0.529,0-0.971-0.415-0.998-0.949L24.584,49c-0.028-0.552,0.396-1.021,0.948-1.049 c0.542-0.025,1.021,0.396,1.049,0.948l0.102,1.998c0.028,0.552-0.396,1.021-0.948,1.049C25.718,51.946,25.7,51.947,25.683,51.947 z"/><path fill="#8d6c9f" d="M24.235,56c-1.019,0-2.066-0.044-3.148-0.138c-8.257-0.71-14.214-3.493-17.706-8.268	c-4.819-6.591-3.11-14.481-3.035-14.814C0.45,32.324,0.855,32,1.322,32h42.776c0.051,0.003,2.092,0.034,3.672-1.167	c-0.984-1.751-2.624-6.23,1.463-12.387c0.147-0.222,0.376-0.375,0.637-0.427c0.259-0.053,0.531,0.001,0.752,0.15	c0.235,0.158,5.043,3.441,4.832,8.022c2.086-0.649,5.117-0.6,8.196,2.05c0.314,0.27,0.429,0.706,0.289,1.095	c-0.024,0.065-2.389,6.366-10.229,5.739C52.165,38.928,44.172,56,24.235,56z M2.17,34c-0.272,2.043-0.624,7.71,2.838,12.43	c3.138,4.278,8.605,6.781,16.251,7.439c1.012,0.087,1.999,0.128,2.952,0.129c20.952,0.002,27.821-20.099,27.891-20.312	c0.15-0.457,0.6-0.743,1.083-0.678c5.463,0.732,7.812-2.342,8.575-3.721c-3.882-2.871-6.968-0.599-7.104-0.496	c-0.357,0.271-0.855,0.273-1.212,0.001c-0.357-0.272-0.492-0.747-0.326-1.164c1.254-3.152-1.375-5.945-2.788-7.159	c-3.527,6.092-0.519,9.852-0.486,9.891c0.32,0.387,0.304,0.951-0.038,1.318c-2.229,2.398-5.59,2.325-5.737,2.319L2.17,34z"/><circle cx="12.5" cy="41.5" r="2.5" fill="#8d6c9f"/><rect width="8" height="8" x="3" y="25" fill="#85cbf8"/><rect width="8" height="8" x="11" y="25" fill="#85cbf8"/><rect width="8" height="8" x="19" y="25" fill="#85cbf8"/><rect width="8" height="8" x="27" y="25" fill="#85cbf8"/><rect width="8" height="8" x="11" y="17" fill="#85cbf8"/><rect width="8" height="8" x="19" y="17" fill="#85cbf8"/><rect width="8" height="8" x="27" y="17" fill="#85cbf8"/><rect width="8" height="8" x="27" y="9" fill="#85cbf8"/><rect width="8" height="8" x="35" y="25" fill="#85cbf8"/><path fill="#8d6c9f" d="M43,24h-7V9c0-0.55-0.45-1-1-1h-8c-0.55,0-1,0.45-1,1v7H11c-0.55,0-1,0.45-1,1v7H3	c-0.55,0-1,0.45-1,1v8c0,0.55,0.45,1,1,1h40c0.55,0,1-0.45,1-1v-8C44,24.45,43.55,24,43,24z M10,32H4v-6h6V32z M18,32h-6v-6h6V32z M26,32h-6v-6h6V32z M26,24h-6v-3c0-0.552-0.448-1-1-1h0c-0.552,0-1,0.448-1,1v3h-6v-6h14V24z M34,32h-6v-6h3c0.55,0,1-0.45,1-1	s-0.45-1-1-1h-3v-6h6V32z M34,16h-6v-6h6V16z M42,32h-6v-6h6V32z"/></svg>